<?xml version="1.0" standalone="no"?>
<!DOCTYPE svg PUBLIC "-//W3C//DTD SVG 20010904//EN"
 "http://www.w3.org/TR/2001/REC-SVG-20010904/DTD/svg10.dtd">
<svg version="1.0" xmlns="http://www.w3.org/2000/svg"
 width="434.000000pt" height="434.000000pt" viewBox="0 0 434.000000 434.000000"
 preserveAspectRatio="xMidYMid meet">
<metadata>
Created by potrace 1.11, written by Peter Selinger 2001-2013
</metadata>
<g transform="translate(0.000000,434.000000) scale(0.100000,-0.100000)"
fill="#000000" stroke="none">
<path d="M0 2170 l0 -2170 2170 0 2170 0 0 2170 0 2170 -2170 0 -2170 0 0
-2170z m3225 775 c50 -14 130 -46 179 -70 l89 -44 28 21 c16 12 40 39 54 60
27 41 60 50 69 20 8 -23 36 -425 36 -509 0 -55 -2 -63 -19 -63 -14 0 -33 28
-75 113 -118 239 -268 377 -458 422 -180 42 -341 -6 -479 -144 -158 -159 -239
-390 -239 -685 0 -213 48 -390 143 -533 54 -81 183 -208 252 -248 177 -104
372 -110 549 -17 90 47 225 179 282 277 33 56 46 70 65 70 53 0 26 -72 -74
-197 -109 -135 -254 -232 -424 -280 -112 -32 -324 -32 -436 0 -341 98 -577
351 -643 692 -20 102 -19 315 1 415 80 387 351 655 733 725 88 16 268 4 367
-25z m-1892 0 c37 -8 107 -30 155 -50 118 -49 121 -49 150 8 24 46 36 54 58
39 11 -7 64 -382 64 -450 0 -25 -4 -32 -19 -32 -15 0 -31 21 -61 78 -120 232
-321 364 -533 349 -175 -12 -296 -132 -297 -296 0 -183 72 -241 468 -376 291
-98 383 -151 466 -268 110 -155 124 -311 41 -486 -49 -102 -169 -223 -275
-275 -207 -101 -457 -85 -701 45 -58 31 -59 32 -80 13 -12 -10 -30 -38 -40
-61 -20 -46 -42 -55 -59 -24 -10 20 -37 327 -42 486 -3 85 -2 90 18 93 18 3
30 -16 82 -120 67 -137 135 -233 212 -300 208 -183 524 -167 663 32 101 146
84 326 -43 450 -62 61 -164 111 -350 173 -274 91 -380 145 -462 236 -162 180
-154 410 21 581 144 142 354 200 564 155z"/>
</g>
</svg>
